<svg xmlns="http://www.w3.org/2000/svg" viewBox="0 0 512 512" width="512" height="512">
  <rect width="512" height="512" rx="96" fill="#14110e"/>
  <g fill="none" stroke="#d9a441" stroke-width="20" stroke-linecap="round" stroke-linejoin="round">
    <!-- steam -->
    <path d="M210 120 q-18 -26 0 -52 q18 -26 0 -52" stroke-width="14" opacity="0.85"/>
    <path d="M256 120 q-18 -26 0 -52 q18 -26 0 -52" stroke-width="14" opacity="0.85"/>
    <path d="M302 120 q-18 -26 0 -52 q18 -26 0 -52" stroke-width="14" opacity="0.85"/>
    <!-- cup body -->
    <path d="M132 168 h220 v92 a110 110 0 0 1 -220 0 z" fill="#1d1813"/>
    <!-- handle -->
    <path d="M352 188 h36 a44 44 0 0 1 0 88 h-30"/>
    <!-- saucer -->
    <path d="M104 392 h304" stroke-width="22"/>
  </g>
</svg>
