<?xml version="1.0" encoding="UTF-8" standalone="no"?>
<!DOCTYPE svg PUBLIC "-//W3C//DTD SVG 1.1//EN" "http://www.w3.org/Graphics/SVG/1.1/DTD/svg11.dtd">
<svg width="100%" height="100%" viewBox="0 0 264 206" version="1.1" xmlns="http://www.w3.org/2000/svg" xmlns:xlink="http://www.w3.org/1999/xlink" xml:space="preserve" xmlns:serif="http://www.serif.com/" style="fill-rule:evenodd;clip-rule:evenodd;stroke-linejoin:round;stroke-miterlimit:2;">
  <defs>
    <style>
      @keyframes steve-blink {
        0%, 60%  { transform: scaleY(1); }
        62%      { transform: scaleY(0.06); }
        65%      { transform: scaleY(1); }
        68%      { transform: scaleY(0.06); }
        71%      { transform: scaleY(1); }
        100%     { transform: scaleY(1); }
      }
      .steve-eye {
        transform-box: fill-box;
        transform-origin: center;
        animation: steve-blink 5s ease-in-out infinite;
      }
    </style>
  </defs>
  <g transform="matrix(1,0,0,1,-1111.59949,-165.094777)">
    <g transform="matrix(1.632812,0,0,1.632812,0,0)" fill="rgb(227,80,30)">
      <path d="M801.494,190.068C794.53,190.36 798,194.16 795.047,203.367C786.152,231.1 764.344,226.818 736.501,226.833C711.165,226.848 687.349,231.658 681.328,194.522C680.803,191.288 680.35,103.817 681.541,102.532C682.908,101.056 683.353,101.79 749.5,101.603C791.846,101.483 791.996,100.455 795.421,101.784C799.695,103.443 794.504,118.933 799.523,119.08C804.522,119.227 825.803,115.791 838.043,137.73C847.966,155.518 840.078,190.663 803.498,190.055C802.472,190.038 802.574,190.061 801.494,190.068Z"/>
      <path d="M738.854,173.472C739.348,194.192 739.711,195.074 741.446,195.014C742.035,194.994 753.318,189.641 754.342,189.155C759.388,186.761 755.277,184.716 746.926,176.066C744.601,173.659 738.764,166.608 738.742,170.544C738.736,171.521 738.859,172.495 738.854,173.472Z"/>
      <path class="steve-eye" d="M766.431,136.852C765.966,136.801 758.591,134.999 752.572,140.582C751.753,141.342 746.274,146.424 747.309,153.525C750.757,177.182 780.164,164.942 772.676,162.177C759.301,157.239 765.152,144.846 771.401,142.304C777.077,139.994 766.997,137.019 766.431,136.852Z"/>
      <path class="steve-eye" d="M706.328,140.285C691.223,154.814 709.275,176.139 726.127,165.011C731.519,161.451 717.453,162.68 718.203,151.487C718.845,141.906 730.677,142.197 725.196,138.957C716,133.52 707.568,139.418 706.328,140.285Z"/>
      <path d="M797.224,164.5C797.235,167.818 796.175,175.548 799.488,175.634C803.339,175.734 816.546,177.248 824.074,166.235C832.522,153.878 825.118,133.66 806.5,133.495C805.772,133.488 797.886,133.419 797.455,134.48C797.208,135.09 797.225,135.077 797.224,164.5Z"/>
    </g>
  </g>
</svg>
